<svg xmlns="http://www.w3.org/2000/svg" width="28" height="28" viewBox="0 0 25 24">
    <path fill="#fff" fill-rule="evenodd" d="M20.627 11.735c.346 0 .631.27.673.619l.005.089v7.08c0 1.317-.985 2.394-2.228 2.472l-.145.005H7.068c-1.262 0-2.294-1.029-2.369-2.327l-.004-.15v-7.08c0-.391.303-.708.678-.708.346 0 .63.27.673.619l.005.089v7.08c0 .549.4 1.001.913 1.056l.104.005h11.864c.527 0 .96-.418 1.012-.953l.005-.109v-7.08c0-.39.304-.707.678-.707zM13 12.62c.346 0 .63.27.673.619l.005.088v3.54c0 .391-.304.708-.678.708-.346 0-.63-.27-.673-.619l-.005-.089v-3.54c0-.39.304-.707.678-.707zm-3.39 0c.346 0 .631.27.673.619l.005.088v3.54c0 .391-.303.708-.678.708-.345 0-.63-.27-.673-.619l-.005-.089v-3.54c0-.39.304-.707.678-.707zm6.78 0c.345 0 .63.27.673.619l.005.088v3.54c0 .391-.304.708-.678.708-.346 0-.631-.27-.673-.619l-.005-.089v-3.54c0-.39.303-.707.678-.707zm-.31-10.343l.051.08 3.194 5.837h2.997c.374 0 .678.318.678.709 0 .36-.259.658-.593.702l-.085.006H3.678C3.304 9.61 3 9.294 3 8.903c0-.361.259-.659.593-.703l.085-.005 2.996-.001 3.195-5.837c.186-.34.6-.458.925-.264.298.178.418.556.293.88l-.04.086-2.811 5.135h9.527l-2.81-5.135c-.185-.34-.072-.772.253-.966.298-.177.67-.093.874.184z"/>
</svg>
