<?xml version="1.0"?>
<svg xmlns="http://www.w3.org/2000/svg" xmlns:xlink="http://www.w3.org/1999/xlink" xmlns:svgjs="http://svgjs.com/svgjs" version="1.1" width="28" height="28" x="0" y="0" viewBox="0 0 512 512" style="enable-background:new 0 0 512 512" xml:space="preserve" class=""><g><g xmlns="http://www.w3.org/2000/svg"><g><path d="m452 276h-116c-33.084 0-60 26.916-60 60v116c0 33.084 26.916 60 60 60h116c33.084 0 60-26.916 60-60v-116c0-33.084-26.916-60-60-60zm20 176c0 11.028-8.972 20-20 20h-116c-11.028 0-20-8.972-20-20v-116c0-11.028 8.972-20 20-20h116c11.028 0 20 8.972 20 20zm-296-176h-116c-33.084 0-60 26.916-60 60v116c0 33.084 26.916 60 60 60h116c33.084 0 60-26.916 60-60v-116c0-33.084-26.916-60-60-60zm20 176c0 11.028-8.972 20-20 20h-116c-11.028 0-20-8.972-20-20v-116c0-11.028 8.972-20 20-20h116c11.028 0 20 8.972 20 20zm-20-452h-116c-33.084 0-60 26.916-60 60v116c0 33.084 26.916 60 60 60h116c33.084 0 60-26.916 60-60v-116c0-33.084-26.916-60-60-60zm20 176c0 11.028-8.972 20-20 20h-116c-11.028 0-20-8.972-20-20v-116c0-11.028 8.972-20 20-20h116c11.028 0 20 8.972 20 20zm256-176h-116c-33.084 0-60 26.916-60 60v116c0 33.084 26.916 60 60 60h116c33.084 0 60-26.916 60-60v-116c0-33.084-26.916-60-60-60zm20 176c0 11.028-8.972 20-20 20h-116c-11.028 0-20-8.972-20-20v-116c0-11.028 8.972-20 20-20h116c11.028 0 20 8.972 20 20z" fill="#ffffff" data-original="#000000" style="" class=""/></g></g></g></svg>
